Format:MP4

File Size:

Format : MPEG-4
Format profile : Base Media
Codec ID : isom
File size : 2.32 GiB
Duration : 1h 32mn
Overall bit rate : 3 611 Kbps

Video
ID : 1
Format : AVC
Format/Info : Advanced Video Codec
Format profile : High@L4.1
Format settings, CABAC : Yes
Format settings, ReFrames : 3 frames
Codec ID : avc1
Codec ID/Info : Advanced Video Coding
Duration : 1h 32mn
Bit rate mode : Variable
Bit rate : 3 030 Kbps
Maximum bit rate : 18.0 Mbps
Width : 1 280 pixels
Height : 688 pixels
Display aspect ratio : 1.860
Frame rate mode : Constant
Frame rate : 23.976 fps
Resolution : 24 bits
Colorimetry : 4:2:0
Scan type : Progressive
Bits/(Pixel*Frame) : 0.144
Stream size : 1.95 GiB (84%)

Audio #1
ID : 2
Format : AAC
Format/Info : Advanced Audio Codec
Format version : Version 4
Format profile : LC
Format settings, SBR : No
Codec ID : 40
Duration : 1h 32mn
Bit rate mode : Variable
Bit rate : 128 Kbps
Maximum bit rate : 133 Kbps
Channel(s) : 2 channels
Channel positions : L R
Sampling rate : 48.0 KHz
Resolution : 16 bits
Stream size : 84.3 MiB (4%)

Audio #2
ID : 3
Format : AAC
Format/Info : Advanced Audio Codec
Format version : Version 4
Format profile : LC
Format settings, SBR : No
Codec ID : 40
Duration : 1h 32mn
Bit rate mode : Variable
Bit rate : 448 Kbps
Maximum bit rate : 466 Kbps
Channel(s) : 6 channels
Channel positions : Front: L C R, Rear: L R, LFE
Sampling rate : 48.0 KHz
Resolution : 16 bits
Stream size : 295 MiB (12%)

Text
ID : 4
Format : Timed text
Codec ID : tx3g
Duration : 1h 29mn
Bit rate mode : Variable
Bit rate : 70 bps
Stream size : 45.7 KiB (0%)

English SRT : External

Release Date:2010

Language:English

Info Hash:


Tracker Info:http://nemesis.1337x.org/announce
 
http://tracker.openbittorrent.com/announce
 
http://tracker.publicbt.com/announce
 
http://genesis.1337x.org:1337/announce



Plot:A murdered hotel millionaire's son finds himself tangled up in a game of seduction and murder after a raunchy night with three beautiful women.

Cast:
Jillian Murray ... Brandi Cox
Cameron Daddo ... Ted Wheetly
Ashley Parker Angel ... Carson Wheetly
Mary Rachel Dudley ... Darlene Cox
Jessie Nickson ... Linda Dobson
Rey Hernandez ... SECURITY GUARD
Ethan S. Smith ... George Stuben
Zakareth Ruben ... Brandi's Lawyer
Kourtney Brown ... Bell Man
Josh Randall
David W. LeBlanc ... Cop
Gerald Owens ... Everglades City Detective